<?xml version="1.0" encoding="utf-8"?>
<!-- Generator: Adobe Illustrator 25.0.1, SVG Export Plug-In . SVG Version: 6.00 Build 0)  -->
<svg version="1.1" id="Warstwa_1" xmlns="http://www.w3.org/2000/svg" xmlns:xlink="http://www.w3.org/1999/xlink" x="0px" y="0px"
	 viewBox="0 0 480 113.33" style="enable-background:new 0 0 480 113.33;" xml:space="preserve">
<style type="text/css">
	.st0{fill:#FFCE61;}
</style>
<g>
	<path class="st0" d="M44.78,51.2c-0.81,0-1.51-0.15-2.08-0.46c-0.58-0.31-1.07-0.7-1.49-1.18c-0.42-0.48-0.78-1.01-1.07-1.6
		c-0.29-0.59-0.54-1.17-0.74-1.73l-8-23.08h-1.09v35.12c0,0.9-0.06,1.74-0.17,2.53c-0.11,0.79-0.36,1.48-0.74,2.08
		c-0.38,0.6-0.94,1.08-1.68,1.43c-0.74,0.35-1.76,0.53-3.05,0.53c-1.46,0-2.61-0.18-3.45-0.53c-0.84-0.35-1.47-0.83-1.89-1.43
		c-0.42-0.6-0.69-1.3-0.8-2.08c-0.11-0.79-0.17-1.63-0.17-2.53V15.5c0-1.21,0.04-2.39,0.11-3.54c0.07-1.15,0.3-2.18,0.69-3.07
		c0.39-0.9,1.02-1.62,1.87-2.17c0.86-0.55,2.07-0.82,3.64-0.82h5.73c0.95,0,1.76,0.04,2.42,0.11c0.66,0.07,1.27,0.31,1.83,0.72
		c0.56,0.41,1.12,1.06,1.66,1.96s1.15,2.17,1.81,3.81c0.66,1.64,1.42,3.73,2.29,6.27c0.87,2.54,1.94,5.66,3.2,9.37l1.09,3.37h1.01
		l1.35-4.21c1.15-3.54,2.13-6.53,2.95-8.97c0.81-2.44,1.53-4.45,2.15-6.04s1.17-2.81,1.66-3.66c0.49-0.86,1.01-1.49,1.56-1.89
		c0.55-0.41,1.14-0.65,1.79-0.72c0.65-0.07,1.43-0.11,2.36-0.11h6.15c1.57,0,2.79,0.27,3.64,0.82s1.48,1.27,1.87,2.17
		c0.39,0.9,0.62,1.92,0.69,3.07s0.11,2.33,0.11,3.54v42.78c0,0.9-0.06,1.74-0.17,2.53c-0.11,0.79-0.38,1.48-0.8,2.08
		c-0.42,0.6-1.05,1.08-1.89,1.43c-0.84,0.35-1.99,0.53-3.45,0.53c-1.29,0-2.31-0.18-3.05-0.53c-0.74-0.35-1.31-0.83-1.68-1.43
		c-0.38-0.6-0.62-1.3-0.74-2.08c-0.11-0.79-0.17-1.63-0.17-2.53V23.16h-1.18l-7.92,23.08c-0.22,0.56-0.48,1.14-0.76,1.73
		c-0.28,0.59-0.63,1.12-1.05,1.6c-0.42,0.48-0.91,0.87-1.47,1.18c-0.56,0.31-1.24,0.46-2.02,0.46H44.78z"/>
	<path class="st0" d="M88.57,81.69c-3.2,0-5.47-0.46-6.82-1.37c-1.35-0.91-2.02-2.25-2.02-4.02c0-0.87,0.12-1.6,0.36-2.19
		c0.24-0.59,0.57-1.07,0.99-1.43c0.42-0.36,0.91-0.62,1.45-0.78c0.55-0.15,1.13-0.23,1.75-0.23c0.42,0,0.81,0.01,1.18,0.04
		c0.36,0.03,0.67,0.04,0.93,0.04c0.53,0,1.05-0.32,1.54-0.95c0.49-0.63,0.97-1.42,1.43-2.38s0.93-1.98,1.41-3.07
		c0.48-1.09,0.95-2.11,1.43-3.03l-0.67-1.68c-0.81-2.05-1.67-4.2-2.57-6.46c-0.9-2.26-1.79-4.55-2.67-6.86s-1.75-4.63-2.61-6.93
		c-0.86-2.3-1.64-4.53-2.34-6.7c-0.31-0.9-0.57-1.78-0.78-2.65c-0.21-0.87-0.32-1.73-0.32-2.57c0-0.81,0.17-1.57,0.51-2.27
		c0.34-0.7,0.8-1.31,1.39-1.81c0.59-0.51,1.27-0.91,2.04-1.2s1.59-0.44,2.46-0.44c0.79,0,1.51,0.17,2.17,0.51
		c0.66,0.34,1.25,0.8,1.77,1.39c0.52,0.59,0.98,1.26,1.37,2.02c0.39,0.76,0.73,1.56,1.01,2.4l5.64,17.77l5.39-17.77
		c0.25-0.79,0.58-1.57,0.97-2.36c0.39-0.79,0.86-1.48,1.39-2.08c0.53-0.6,1.14-1.09,1.81-1.47s1.42-0.57,2.23-0.57
		s1.59,0.15,2.34,0.46s1.39,0.74,1.94,1.28s0.98,1.2,1.31,1.96s0.48,1.57,0.48,2.44c0,0.84-0.11,1.68-0.32,2.51
		c-0.21,0.83-0.47,1.65-0.78,2.46l-10.11,26.78c-0.59,1.52-1.23,3.1-1.92,4.74c-0.69,1.64-1.44,3.25-2.25,4.82s-1.68,3.06-2.61,4.46
		c-0.93,1.4-1.91,2.64-2.95,3.71c-1.04,1.07-2.14,1.92-3.31,2.55C91.05,81.37,89.84,81.69,88.57,81.69z"/>
	<path class="st0" d="M175.32,5.9c2.55,0,4.93,0.32,7.14,0.97s4.13,1.61,5.77,2.88s2.93,2.87,3.87,4.78
		c0.94,1.91,1.41,4.14,1.41,6.69v26.11c0,2.19-0.24,4.12-0.72,5.79c-0.48,1.67-1.1,3.12-1.87,4.34c-0.77,1.22-1.65,2.26-2.63,3.12
		s-1.98,1.55-2.99,2.08c-2.41,1.29-5.15,2.02-8.21,2.19h-13.98c-1.6,0-2.84-0.27-3.71-0.82c-0.87-0.55-1.5-1.28-1.89-2.19
		c-0.39-0.91-0.62-1.94-0.69-3.1c-0.07-1.15-0.11-2.34-0.11-3.58V15.5c0-1.21,0.04-2.39,0.11-3.54c0.07-1.15,0.3-2.18,0.69-3.07
		c0.39-0.9,1.02-1.62,1.89-2.17c0.87-0.55,2.11-0.82,3.71-0.82H175.32z M169.51,15.75v39.07h5.47c1.21-0.06,2.29-0.34,3.24-0.84
		c0.39-0.2,0.79-0.46,1.18-0.8c0.39-0.34,0.74-0.74,1.05-1.2c0.31-0.46,0.55-1.02,0.74-1.66c0.18-0.65,0.27-1.39,0.27-2.23V23.24
		c0-0.93-0.09-1.75-0.27-2.46c-0.18-0.72-0.43-1.34-0.74-1.87s-0.66-0.98-1.05-1.34c-0.39-0.36-0.79-0.66-1.18-0.88
		c-0.95-0.53-2.04-0.84-3.24-0.93H169.51z"/>
	<path class="st0" d="M203.62,32.17c0-1.18,0.06-2.33,0.19-3.45s0.41-2.13,0.86-3.01c0.45-0.88,1.09-1.6,1.94-2.15
		s1.98-0.82,3.41-0.82c1.43,0,2.57,0.27,3.41,0.82s1.49,1.26,1.94,2.15c0.45,0.88,0.74,1.89,0.86,3.01
		c0.13,1.12,0.19,2.27,0.19,3.45v23.24c0,1.18-0.06,2.34-0.19,3.47c-0.13,1.14-0.41,2.15-0.86,3.03c-0.45,0.88-1.09,1.59-1.94,2.13
		c-0.84,0.53-1.98,0.8-3.41,0.8c-1.43,0-2.57-0.27-3.41-0.8c-0.84-0.53-1.49-1.24-1.94-2.13c-0.45-0.88-0.74-1.89-0.86-3.03
		s-0.19-2.29-0.19-3.47V32.17z M216.5,12.3c0,2.16-0.56,3.77-1.68,4.82c-1.12,1.05-2.7,1.58-4.72,1.58s-3.59-0.53-4.72-1.58
		c-1.12-1.05-1.68-2.66-1.68-4.82c0-2.25,0.56-3.87,1.68-4.88s2.7-1.52,4.72-1.52c2.16,0,3.77,0.51,4.82,1.52
		S216.5,10.05,216.5,12.3z"/>
	<path class="st0" d="M262.91,40.84c0,0.45-0.03,0.98-0.08,1.58c-0.06,0.6-0.27,1.18-0.65,1.73c-0.38,0.55-0.98,1.02-1.79,1.41
		c-0.81,0.39-1.97,0.59-3.45,0.59h-16.76v4.04c0,0.67,0.08,1.38,0.25,2.11s0.46,1.4,0.86,2.02s0.95,1.12,1.62,1.52
		c0.67,0.39,1.5,0.59,2.48,0.59c1.12,0,1.99-0.13,2.59-0.4s1.08-0.6,1.43-0.99c0.35-0.39,0.67-0.81,0.95-1.26s0.65-0.87,1.12-1.26
		c0.46-0.39,1.11-0.72,1.94-0.99c0.83-0.27,1.97-0.4,3.43-0.4c0.7,0,1.38,0.06,2.04,0.17c0.66,0.11,1.24,0.32,1.75,0.63
		c0.51,0.31,0.91,0.74,1.22,1.28s0.46,1.26,0.46,2.13c0,1.82-0.58,3.35-1.73,4.57c-1.15,1.22-2.6,2.2-4.34,2.93
		c-1.74,0.73-3.63,1.25-5.66,1.56c-2.04,0.31-3.94,0.46-5.71,0.46c-2.33-0.03-4.55-0.32-6.65-0.88c-2.11-0.56-3.97-1.46-5.58-2.7
		c-1.61-1.24-2.9-2.85-3.85-4.84s-1.43-4.44-1.43-7.33v-9.85c0-2.67,0.32-4.93,0.95-6.78c0.63-1.85,1.45-3.4,2.46-4.63
		s2.15-2.2,3.41-2.88c1.26-0.69,2.54-1.2,3.83-1.54c1.29-0.34,2.52-0.55,3.68-0.63c1.17-0.08,2.17-0.13,3.01-0.13
		c2.84,0,5.26,0.25,7.26,0.76c2.01,0.51,3.68,1.17,5.03,1.98c1.35,0.81,2.41,1.75,3.2,2.82s1.38,2.17,1.77,3.31
		c0.39,1.14,0.65,2.29,0.76,3.45s0.17,2.25,0.17,3.26V40.84z M240.17,39.83h10.53c0-1.32-0.04-2.49-0.11-3.52
		c-0.07-1.02-0.28-1.89-0.63-2.59c-0.35-0.7-0.9-1.24-1.64-1.6c-0.74-0.36-1.8-0.55-3.18-0.55c-1.15,0-2.06,0.18-2.72,0.55
		c-0.66,0.36-1.16,0.82-1.49,1.37c-0.34,0.55-0.55,1.13-0.63,1.75c-0.08,0.62-0.13,1.17-0.13,1.64V39.83z"/>
	<path class="st0" d="M277.31,22.74v-7.41c0-1.18,0.06-2.33,0.19-3.45c0.13-1.12,0.41-2.13,0.86-3.01c0.45-0.88,1.09-1.6,1.94-2.15
		s1.98-0.82,3.41-0.82c1.4,0,2.53,0.27,3.37,0.82s1.48,1.26,1.92,2.15c0.44,0.88,0.72,1.89,0.84,3.01c0.13,1.12,0.19,2.27,0.19,3.45
		v7.41h3.45c0.73,0,1.46,0.04,2.19,0.11c0.73,0.07,1.39,0.27,1.96,0.61c0.58,0.34,1.04,0.84,1.39,1.52
		c0.35,0.67,0.53,1.61,0.53,2.82c0,1.15-0.18,2.06-0.53,2.74c-0.35,0.67-0.81,1.18-1.39,1.52c-0.58,0.34-1.23,0.55-1.96,0.65
		c-0.73,0.1-1.46,0.15-2.19,0.15h-3.45v14.74c0,0.56,0.02,1.16,0.06,1.79s0.19,1.21,0.44,1.75c0.25,0.53,0.63,0.98,1.14,1.33
		c0.51,0.35,1.22,0.53,2.15,0.53c1.01,0,1.87,0.08,2.59,0.23c0.72,0.15,1.31,0.43,1.77,0.82c0.46,0.39,0.81,0.94,1.03,1.64
		c0.22,0.7,0.34,1.6,0.34,2.7c0,1.12-0.26,2.09-0.78,2.91c-0.52,0.81-1.21,1.49-2.09,2.02c-0.87,0.53-1.88,0.93-3.03,1.18
		c-1.15,0.25-2.36,0.38-3.62,0.38c-1.99,0-3.7-0.21-5.12-0.63c-1.42-0.42-2.6-1.02-3.54-1.79c-0.94-0.77-1.68-1.7-2.23-2.78
		c-0.55-1.08-0.95-2.29-1.22-3.64c-0.27-1.35-0.44-2.8-0.51-4.36s-0.11-3.19-0.11-4.91v-13.9h-2.36c-0.73,0-1.45-0.05-2.17-0.15
		c-0.72-0.1-1.35-0.32-1.92-0.65c-0.56-0.34-1.02-0.84-1.37-1.52c-0.35-0.67-0.53-1.59-0.53-2.74c0-1.21,0.18-2.15,0.53-2.82
		c0.35-0.67,0.81-1.18,1.37-1.52c0.56-0.34,1.2-0.54,1.92-0.61c0.72-0.07,1.44-0.11,2.17-0.11H277.31z"/>
	<path class="st0" d="M353.45,20.72c0.03,1.18,0.37,2.24,1.03,3.18c0.66,0.94,1.53,1.83,2.61,2.67s2.31,1.66,3.68,2.46
		c1.38,0.8,2.79,1.64,4.23,2.53c1.45,0.88,2.86,1.85,4.23,2.88s2.61,2.22,3.71,3.54c1.09,1.32,1.98,2.81,2.65,4.46
		c0.67,1.66,1.04,3.54,1.09,5.64v0.34c0,2.3-0.28,4.31-0.84,6.02c-0.56,1.71-1.31,3.19-2.23,4.42c-0.93,1.24-2.01,2.25-3.24,3.05
		c-1.24,0.8-2.53,1.44-3.9,1.92c-1.36,0.48-2.74,0.81-4.13,1.01s-2.7,0.31-3.94,0.34h-0.42c-2.39,0-4.48-0.24-6.27-0.72
		c-1.8-0.48-3.34-1.12-4.63-1.92c-1.29-0.8-2.37-1.72-3.22-2.76c-0.86-1.04-1.54-2.11-2.04-3.22s-0.87-2.21-1.09-3.31
		s-0.34-2.12-0.34-3.07c0-0.98,0.17-1.84,0.51-2.57c0.34-0.73,0.78-1.33,1.33-1.79c0.55-0.46,1.18-0.81,1.89-1.03
		c0.72-0.22,1.47-0.34,2.25-0.34c0.73,0,1.48,0.11,2.25,0.34c0.77,0.22,1.47,0.57,2.11,1.03c0.63,0.46,1.15,1.05,1.56,1.77
		c0.41,0.72,0.62,1.55,0.65,2.51c0.06,2.11,0.53,3.54,1.43,4.32c0.9,0.77,2.19,1.16,3.87,1.16c0.84-0.03,1.62-0.13,2.34-0.32
		s1.33-0.51,1.83-0.97c0.51-0.46,0.91-1.08,1.2-1.85c0.29-0.77,0.44-1.75,0.44-2.93c0-1.46-0.33-2.78-0.99-3.96
		c-0.66-1.18-1.52-2.27-2.59-3.28c-1.07-1.01-2.29-1.97-3.66-2.88c-1.38-0.91-2.78-1.82-4.21-2.74c-1.43-0.91-2.83-1.87-4.19-2.86
		s-2.59-2.08-3.68-3.26c-1.09-1.18-1.97-2.48-2.63-3.92c-0.66-1.43-1-3.06-1.03-4.88v-0.67c0.03-3,0.43-5.5,1.2-7.49
		c0.77-1.99,1.91-3.58,3.41-4.76c1.5-1.18,3.35-2.01,5.54-2.51s4.7-0.74,7.54-0.74h1.09c2.58,0,4.77,0.28,6.57,0.84
		c1.8,0.56,3.29,1.28,4.48,2.15c1.19,0.87,2.13,1.85,2.82,2.95c0.69,1.09,1.2,2.18,1.54,3.24s0.55,2.06,0.63,2.99
		c0.08,0.92,0.13,1.67,0.13,2.23c0,0.84-0.16,1.61-0.48,2.29s-0.76,1.27-1.31,1.75c-0.55,0.48-1.19,0.85-1.94,1.12
		c-0.74,0.27-1.55,0.4-2.42,0.4c-0.67,0-1.35-0.13-2.02-0.4c-0.67-0.27-1.28-0.61-1.81-1.03c-0.53-0.42-0.97-0.91-1.31-1.45
		s-0.51-1.1-0.51-1.66c0-2.3-0.41-3.9-1.24-4.8s-2.04-1.35-3.64-1.35c-0.76,0-1.49,0.04-2.21,0.13c-0.72,0.08-1.35,0.32-1.89,0.69
		c-0.55,0.38-0.98,0.96-1.31,1.75C353.61,18.18,353.45,19.28,353.45,20.72z"/>
	<path class="st0" d="M384.94,32.25c0-1.18,0.04-2.34,0.13-3.47c0.08-1.14,0.34-2.15,0.76-3.05c0.42-0.9,1.05-1.62,1.89-2.17
		s2.02-0.82,3.54-0.82c1.54,0,2.75,0.26,3.62,0.78c0.87,0.52,1.52,1.15,1.94,1.89c0.42,0.74,0.68,1.52,0.78,2.34
		c0.1,0.81,0.15,1.5,0.15,2.06c0.25-0.81,0.61-1.64,1.07-2.48c0.46-0.84,1.06-1.6,1.79-2.27c0.73-0.67,1.61-1.23,2.63-1.66
		c1.02-0.44,2.22-0.65,3.6-0.65c1.54,0,3.09,0.25,4.63,0.76c1.54,0.51,2.93,1.35,4.17,2.53c1.24,1.18,2.24,2.72,3.01,4.61
		c0.77,1.89,1.16,4.23,1.16,7.01v12.21c0,2.81-0.39,5.16-1.16,7.05c-0.77,1.89-1.78,3.42-3.01,4.59c-1.24,1.17-2.62,2-4.17,2.51
		c-1.54,0.51-3.09,0.76-4.63,0.76c-1.38,0-2.58-0.21-3.6-0.63c-1.02-0.42-1.9-0.97-2.63-1.64c-0.73-0.67-1.33-1.43-1.79-2.27
		c-0.46-0.84-0.82-1.68-1.07-2.53v14.4c0,1.24-0.06,2.43-0.19,3.58c-0.13,1.15-0.41,2.17-0.84,3.05c-0.44,0.88-1.09,1.6-1.96,2.15
		s-2.04,0.82-3.5,0.82c-1.4,0-2.53-0.27-3.37-0.82s-1.48-1.26-1.92-2.15c-0.44-0.88-0.72-1.9-0.84-3.05s-0.19-2.34-0.19-3.58V32.25z
		 M406.84,38.74c0-0.76-0.03-1.5-0.08-2.23c-0.06-0.73-0.21-1.39-0.46-1.98s-0.62-1.06-1.12-1.41c-0.49-0.35-1.17-0.53-2.04-0.53
		c-1.09,0-1.99,0.25-2.67,0.74c-0.69,0.49-1.23,1.25-1.62,2.27c-0.39,1.02-0.67,2.32-0.82,3.9c-0.15,1.57-0.25,3.42-0.27,5.56
		c0,0.9,0.08,1.92,0.23,3.05c0.15,1.14,0.43,2.21,0.82,3.22c0.39,1.01,0.94,1.86,1.64,2.55c0.7,0.69,1.6,1.03,2.7,1.03
		c0.87,0,1.55-0.18,2.04-0.53c0.49-0.35,0.86-0.81,1.12-1.37s0.41-1.2,0.46-1.92c0.06-0.72,0.08-1.44,0.08-2.17V38.74z"/>
	<path class="st0" d="M351.46,109.89c-3.2,0-5.47-0.46-6.82-1.37c-1.35-0.91-2.02-2.25-2.02-4.02c0-0.87,0.12-1.6,0.36-2.19
		c0.24-0.59,0.57-1.07,0.99-1.43c0.42-0.36,0.91-0.62,1.45-0.78c0.55-0.15,1.13-0.23,1.75-0.23c0.42,0,0.81,0.01,1.18,0.04
		c0.36,0.03,0.67,0.04,0.93,0.04c0.16,0,4.05,0.55,14.88-3.16c15.73-5.39,42.62-13.48,56.58-18.39c7.89-2.78,12.29-7.43,12.41-7.59
		c0.49-0.63,0.97-1.42,1.43-2.38c0.46-0.95,0.93-1.98,1.41-3.07c0.48-1.09,0.95-2.11,1.43-3.03l-0.67-1.68
		c-0.81-2.05-1.67-4.2-2.57-6.46c-0.9-2.26-1.79-4.55-2.67-6.86s-1.75-4.63-2.61-6.93s-1.64-4.53-2.34-6.7
		c-0.31-0.9-0.57-1.78-0.78-2.65c-0.21-0.87-0.32-1.73-0.32-2.57c0-0.81,0.17-1.57,0.51-2.27c0.34-0.7,0.8-1.31,1.39-1.81
		c0.59-0.51,1.27-0.91,2.04-1.2c0.77-0.29,1.59-0.44,2.46-0.44c0.79,0,1.51,0.17,2.17,0.51c0.66,0.34,1.25,0.8,1.77,1.39
		s0.98,1.26,1.37,2.02c0.39,0.76,0.73,1.56,1.01,2.4l5.64,17.77l5.39-17.77c0.25-0.79,0.58-1.57,0.97-2.36s0.86-1.48,1.39-2.08
		s1.14-1.09,1.81-1.47c0.67-0.38,1.42-0.57,2.23-0.57s1.59,0.15,2.34,0.46s1.39,0.74,1.94,1.28s0.98,1.2,1.31,1.96
		s0.48,1.57,0.48,2.44c0,0.84-0.11,1.68-0.32,2.51c-0.21,0.83-0.47,1.65-0.78,2.46l-10.11,26.78c-0.59,1.52-1.23,3.1-1.92,4.74
		c-0.69,1.64-1.44,3.25-2.25,4.82s-1.68,3.06-2.61,4.46c-0.93,1.4-1.91,2.64-2.95,3.71c-1.04,1.07-2.14,1.92-3.31,2.55
		c-0.51,0.27-13.34,6.91-32.03,12.13c-11.99,3.35-26.92,7.89-36.37,12.03C359.58,109.04,351.82,109.89,351.46,109.89z"/>
</g>
</svg>
